<svg width="283" height="99" viewBox="0 0 283 99" fill="none" xmlns="http://www.w3.org/2000/svg">
<path d="M260.387 52.5265C263.617 51.0134 264.048 49.5003 261.248 46.0418C255.002 31.127 248.11 23.5615 240.572 23.1292C241.649 35.6663 248.11 45.3933 260.387 52.5265Z" fill="#95CA33"/>
<path d="M253.064 63.5504C253.064 60.9565 250.48 59.8757 244.45 60.0918C232.604 62.0373 224.42 65.9281 219.682 71.9805C231.743 74.1421 245.096 70.2512 253.064 63.5504Z" fill="#95CA33"/>
<path d="M251.771 54.9041C248.756 53.1748 245.31 48.4194 242.295 42.367C235.834 39.9892 229.588 38.9084 223.988 38.9084C230.88 48.6355 241.864 54.6879 251.771 54.9041Z" fill="#95CA33"/>
<path d="M213.22 75.0068C217.743 77.1683 222.481 78.6814 227.65 79.1138C232.604 79.5461 237.557 79.3299 242.726 78.033C247.68 76.736 252.418 74.7906 256.295 71.9806C258.018 70.8998 259.525 69.6028 261.033 68.0897C260.817 70.0351 260.387 71.7644 259.741 73.7098C261.894 72.629 263.833 71.9806 265.986 71.5482C266.848 67.6574 267.063 63.7666 267.063 59.8758V59.6596C266.848 55.3365 266.202 51.2295 264.91 46.9063C263.617 42.7993 261.894 38.6924 259.525 34.8015C257.156 30.9107 254.356 27.4522 251.126 24.2098C247.895 20.9675 244.234 18.1574 240.142 15.9958C239.926 15.7797 239.496 15.7797 239.28 15.7797C237.773 15.5635 236.265 16.4282 235.834 17.7251C234.757 22.2644 234.542 27.0199 235.403 31.7753C235.619 33.2884 236.05 34.5854 236.48 36.0985C234.757 35.6662 233.034 35.0177 231.527 34.8015C227.65 33.9369 223.989 33.5046 220.112 33.2884C219.681 33.2884 219.466 33.2884 219.035 33.5046C217.527 33.9369 216.666 35.45 217.312 36.7469C218.82 41.2862 221.189 45.3932 224.419 49.284C227.435 52.9587 231.311 55.9849 235.834 58.3627C231.742 59.4434 227.865 60.9565 224.204 62.902C220.112 65.0635 216.235 67.6574 212.789 70.6836C212.574 70.8998 212.359 71.1159 212.143 71.3321C211.282 72.629 211.712 74.1421 213.22 75.0068ZM240.788 22.9129C242.942 24.426 245.095 26.1552 247.034 28.1006C249.833 30.9107 252.418 34.153 254.572 37.6116C256.725 41.0701 258.448 44.7448 259.525 48.6356C260.387 51.2295 260.817 53.8234 261.248 56.4172C258.664 55.3365 256.079 53.8234 253.71 52.0941C250.48 49.5002 247.68 46.474 245.311 42.7993C242.942 39.1247 241.649 35.2338 241.003 31.343C240.572 28.533 240.357 25.7229 240.788 22.9129ZM228.512 46.0417C226.573 43.8801 225.066 41.5024 223.989 39.1247C225.927 39.3408 228.081 39.7731 230.019 40.2055C233.034 40.8539 236.05 41.9347 239.065 43.0155C239.496 43.8801 239.926 44.5286 240.357 45.3932C242.942 49.7164 246.172 53.1749 250.049 56.2011C251.126 57.0657 252.203 57.7142 253.495 58.5788C252.633 58.5788 251.556 58.3627 250.695 58.3627C246.387 57.7142 242.295 56.4172 238.419 54.2557C234.542 51.8779 231.096 49.0679 228.512 46.0417ZM226.573 67.6574C230.235 65.712 234.111 64.1989 238.419 63.3343C239.496 63.1181 240.572 62.902 241.649 62.6858C242.511 62.4696 243.372 62.2535 244.234 62.2535C245.957 62.6858 247.895 63.1181 249.618 63.3343C252.203 63.7666 255.002 63.9827 257.802 63.7666C256.295 65.2797 254.572 66.5766 252.849 67.8736C249.403 70.2513 245.526 71.9806 241.003 73.0613C236.696 74.1421 232.173 74.3583 228.081 73.926C225.066 73.7098 222.266 73.0613 219.466 71.9806C221.835 70.2513 224.204 68.7382 226.573 67.6574Z" fill="#374647"/>
<path d="M2.58496 49.2839C2.58496 42.5831 3.66183 36.3145 5.81555 30.4783C7.96928 24.8582 10.9845 19.8866 15.0766 15.7796C19.1687 11.6726 24.1223 8.43024 29.9373 6.05251C35.7524 3.67478 42.6443 2.59399 49.967 2.59399H50.1824C56.6436 2.59399 62.674 3.45862 68.2737 5.18788C73.8734 6.91714 78.827 9.72718 82.9191 13.618L72.3658 28.1005C66.5507 23.1289 59.0127 20.7512 49.967 20.7512H49.7516C45.2288 20.7512 41.1367 21.3997 37.6907 22.9128C34.2448 24.4259 31.2296 26.3713 28.8605 28.749C26.4914 31.3429 24.553 34.3691 23.2608 37.8276C21.9685 41.2861 21.3224 45.177 21.3224 49.2839V49.5001C21.3224 53.6071 21.9685 57.2818 23.2608 60.7403C24.553 64.1988 26.276 67.225 28.6451 69.8189C31.0142 72.4128 33.814 74.3582 37.26 75.8713C40.706 77.3844 44.3673 78.0329 48.6748 78.0329H48.8901C54.0591 78.0329 58.5819 77.1682 62.2433 75.2228C65.9046 73.2774 68.2737 70.6835 69.3506 67.4412V62.6857H50.1824V47.1224H85.0728V94.4608H73.2273L72.3658 85.3822C69.7813 88.8407 66.3353 91.6508 62.0279 93.38C57.7204 95.1093 52.7668 95.9739 46.9518 95.9739H47.3825C40.4906 95.9739 34.2448 94.8931 28.6451 92.5154C23.0454 90.1377 18.3072 86.8953 14.6458 82.7883C10.7691 78.6813 7.75391 73.7097 5.81555 68.0896C3.44645 62.4695 2.58496 56.201 2.58496 49.2839Z" fill="#0E3731"/>
<path d="M156.792 94.4608L138.701 65.2796H122.548V94.4608H103.38V4.32324H140.209C151.839 4.32324 160.669 7.13329 166.915 12.5372C173.161 17.9411 176.176 25.5066 176.176 35.2337V35.4499C176.176 42.3669 174.668 48.2032 171.438 52.9586C168.207 57.7141 163.469 60.9564 157.223 63.118L178.33 94.8931H156.792V94.4608ZM122.548 21.6158V48.6355H140.209C145.378 48.6355 149.47 47.5547 152.485 45.6093C155.5 43.6639 157.008 39.9892 157.008 35.0176V34.8014C157.008 30.046 155.5 26.5874 152.485 24.4259C149.47 22.2643 145.378 21.3997 140.209 21.3997H122.548V21.6158Z" fill="#0E3731"/>
<path d="M188.452 49.5C188.452 42.583 189.529 36.3144 191.683 30.6943C193.836 24.8581 196.852 20.1026 200.944 15.9956C204.605 11.6725 209.559 8.6463 215.158 6.26857C220.973 3.89084 227.219 2.81006 234.542 2.81006H234.757C241.865 2.81006 248.326 3.89084 254.141 6.26857C259.956 8.6463 264.694 11.6725 268.786 15.7795C272.663 19.8865 275.894 24.8581 278.047 30.4782C280.201 36.3144 281.278 42.3668 281.278 49.2839V49.5C281.278 56.417 280.201 62.6856 278.047 68.3057C275.894 73.9258 272.878 78.8974 268.786 83.0044C264.91 87.1114 259.956 90.3537 254.141 92.7315C248.326 95.1092 242.08 96.19 234.757 96.19H234.542C227.435 96.19 220.973 95.1092 215.158 92.7315C209.343 90.3537 204.605 87.1114 200.513 83.0044C196.636 78.8974 193.406 73.9258 191.252 68.3057C189.314 62.6856 188.452 56.417 188.452 49.5ZM207.62 49.5C207.62 53.607 208.266 57.4978 209.559 60.9563C210.851 64.4149 212.574 67.4411 214.943 70.035C217.312 72.6288 220.112 74.5742 223.558 75.8712C226.789 77.1681 230.665 78.0328 234.757 78.0328H234.973C239.065 78.0328 242.942 77.3843 246.172 75.8712C249.403 74.5742 252.418 72.4127 254.787 70.035C257.156 67.4411 258.879 64.4149 260.171 60.9563C261.464 57.4978 262.11 53.607 262.11 49.5V49.2839C262.11 45.1769 261.464 41.286 260.171 37.8275C258.879 34.369 257.156 31.3428 254.787 28.7489C252.418 26.155 249.618 24.2096 246.172 22.9127C242.942 21.6157 239.065 20.7511 234.973 20.7511H234.757C230.665 20.7511 226.789 21.3996 223.558 22.9127C220.327 24.2096 217.312 26.3712 214.943 28.7489C212.574 31.3428 210.851 34.369 209.559 37.8275C208.266 41.286 207.62 45.1769 207.62 49.5Z" fill="#0E3731"/>
</svg>
